<svg xmlns="http://www.w3.org/2000/svg" xmlns:xlink="http://www.w3.org/1999/xlink" xml:space="preserve" version="1.1" style="shape-rendering:geometricPrecision;text-rendering:geometricPrecision;image-rendering:optimizeQuality;" viewBox="0 0 847 1058.75" x="0px" y="0px" fill-rule="evenodd" clip-rule="evenodd">
    <defs>
        <style type="text/css">
        .fil0 {
            fill: black
        }
        </style>
    </defs>
    <g>
        <path class="fil0" d="M613 832l2 -50c-3,-2 -32,-4 -26,15 11,40 0,32 20,37 2,1 3,1 4,-2z" />
        <path class="fil0" d="M617 780l-3 -41 6 -2c1,-1 2,-1 3,-1 0,-1 1,-1 1,-2 2,-3 6,-3 8,-3 -3,31 -9,58 -16,80l1 11c28,-69 32,-216 30,-348 5,-9 6,-16 0,-22l-1 0c-2,-73 -6,-140 -9,-184l-8 -100c0,64 6,163 9,265l-31 -37c-1,-1 -2,-3 -3,-4l0 0 -3 -4c4,-2 8,-7 6,-21 -8,-54 7,-194 -10,-194 -40,1 -16,-1 -10,118l-1 59 -1 -2 -48 -147c1,-5 2,-6 -4,-8 -2,0 -3,3 -5,3 -26,-9 -46,-22 -71,-30 -8,-2 -22,-8 -48,-22 5,0 10,-3 15,-4 18,-6 84,-4 40,-15 -25,-6 -64,13 -43,-15 16,-22 63,-29 32,-32 -30,-3 -60,51 -37,-23 10,-35 -38,39 -19,81 1,1 1,3 2,4 -4,-2 -9,-3 -10,-4 -9,-5 -14,-10 -26,-17l-14 -4c34,21 42,27 38,28 -4,1 -15,-1 -33,-6 -30,-9 -71,-23 -110,-23 0,-2 -2,-5 -4,-6 -3,-2 -9,-1 -15,-5 -18,-11 -6,-17 -48,-20 -82,-5 70,26 34,26 -82,0 -78,56 -73,49 16,-21 10,-31 55,-35 22,-2 -26,18 -48,61 -29,57 119,-113 57,-22l-23 30c42,-26 65,-58 65,-75 14,2 35,4 58,9 28,5 48,18 88,22 8,0 5,7 -13,9 -44,7 -80,17 -94,22 -1,-1 -3,-2 -7,-1 -4,0 -8,1 -13,1 -30,3 -72,23 -29,14 41,-8 -10,13 -8,63l12 -28c37,-51 15,81 30,0 4,-18 17,-38 16,-46 6,-2 16,-4 32,-9l82 -16c21,-15 -17,-17 49,11 106,45 79,26 95,70 8,23 28,100 44,120l-1 8 -54 -77c1,-13 -2,-22 -12,-20l-2 0 0 0c-32,-27 -99,-88 -78,-67 33,32 54,52 69,68l-61 8c-7,6 63,-10 29,12 -25,16 -55,42 1,11 45,-24 27,-14 11,13l12 -7c32,-40 14,-5 12,15 -7,47 14,5 18,-27 16,20 27,38 55,80l0 11c0,0 5,2 10,3l0 0c-5,0 -10,2 -12,10 -1,-2 -3,-3 -3,-4 -1,-3 1,-3 -1,-8 -26,-47 -88,-4 -88,-4 -2,5 81,-22 87,10 1,3 -24,-22 -54,5 -15,13 -65,85 -10,28 35,-37 55,-35 64,-29 2,1 3,3 4,4 -1,5 -1,11 1,18l0 34c-7,1 -12,3 -11,3l11 0 -1 47c-2,3 -5,6 -7,9 -12,13 -5,11 7,3l-3 53c3,3 18,3 21,1 9,-6 6,-39 4,-69 11,-7 19,-14 19,-13l2 29c4,-11 10,-21 14,-29 2,86 1,172 -6,241 -2,-3 -5,-7 -5,-7 1,-5 -5,-13 -17,-19l-10 -131c-5,2 -14,2 -22,-1 -2,22 16,48 13,125 -9,-2 -19,-3 -29,0l29 14c-1,6 -1,12 -2,19 -17,4 -38,15 -52,34 -15,21 -14,8 50,-15 -3,26 -3,39 1,37 6,-4 20,-7 27,-3 0,0 1,0 1,-1zm-4 -54l-1 -8 12 3 8 8 0 2c-2,-1 -9,-1 -10,-1 -2,-2 -5,-4 -9,-4zm-5 -319c9,13 18,25 30,37l1 5c-9,-2 -22,-1 -34,0l3 -42zm-3 49c38,1 26,3 -1,27l0 -6 1 -21z" />
        <path class="fil0" d="M587 15c-7,-6 -27,-2 -21,17 28,102 -9,155 28,137 5,-3 6,-9 6,-18 3,-1 8,-5 9,-4 17,23 117,13 100,8 0,0 -58,1 -95,-16l71 -26c0,-7 -57,4 -75,22l-10 11c-2,-19 -8,-45 -7,-70 2,-48 8,-52 -16,-54l10 -7z" />
    </g>
</svg>