<?xml version="1.0" standalone="no"?>
<!DOCTYPE svg PUBLIC "-//W3C//DTD SVG 20010904//EN"
 "http://www.w3.org/TR/2001/REC-SVG-20010904/DTD/svg10.dtd">
<svg version="1.0" xmlns="http://www.w3.org/2000/svg"
 width="512.000000pt" height="512.000000pt" viewBox="0 0 512.000000 512.000000"
 preserveAspectRatio="xMidYMid meet">
<metadata>
Created by potrace 1.11, written by Peter Selinger 2001-2013
</metadata>
<g transform="translate(0.000000,512.000000) scale(0.100000,-0.100000)"
fill="#000000" stroke="none">
<path d="M2700 4930 c-92 -52 -115 -61 -178 -68 -37 -5 -107 -6 -157 -3 -226
14 -425 0 -508 -37 -47 -21 -95 -76 -76 -87 6 -4 9 -16 6 -26 -3 -11 -2 -17 3
-14 8 5 25 -24 22 -37 -1 -5 3 -8 8 -8 6 0 18 -8 28 -17 35 -34 70 -61 74 -58
2 2 14 -5 28 -17 14 -11 19 -16 11 -12 -9 4 -12 3 -7 -4 4 -6 13 -9 21 -5 8 3
15 0 15 -7 0 -6 5 -8 10 -5 6 3 10 2 10 -3 0 -13 126 -68 166 -71 9 -1 12 -6
8 -13 -6 -10 -5 -10 7 -1 8 6 25 11 39 11 22 1 50 4 115 17 11 2 22 4 25 5 3
1 8 2 13 1 4 0 7 3 7 9 0 6 6 10 13 10 6 0 38 13 70 29 31 16 57 27 57 23 0
-4 5 1 11 11 6 9 15 14 21 11 7 -4 8 -2 4 4 -3 6 3 16 14 22 11 6 20 8 20 5 0
-3 9 0 21 9 12 8 33 12 47 10 15 -3 23 -2 19 2 -9 10 93 56 110 49 9 -3 11 0
7 7 -5 7 -2 9 8 5 9 -3 19 -3 22 1 4 3 12 7 19 8 7 2 22 5 35 8 12 3 32 8 43
11 12 2 24 7 27 10 3 2 11 0 19 -7 11 -9 13 -8 11 1 -5 21 108 35 131 17 11
-8 13 -8 7 2 -10 17 9 15 47 -5 42 -21 56 -41 57 -79 0 -31 -47 -132 -80 -169
-9 -11 -30 -44 -45 -73 -18 -33 -34 -51 -42 -48 -7 3 -12 2 -11 -2 1 -7 -9
-36 -39 -107 -10 -22 -30 -53 -46 -70 -33 -35 -69 -100 -60 -109 4 -3 1 -6 -5
-6 -7 0 -12 -11 -12 -24 0 -13 -13 -38 -29 -57 -16 -18 -28 -37 -25 -40 2 -4
0 -10 -6 -14 -5 -3 -10 -12 -10 -20 0 -8 -5 -26 -12 -42 -6 -15 -10 -32 -9
-38 1 -5 5 -34 8 -65 3 -30 9 -57 14 -58 5 -2 7 -7 4 -12 -7 -11 16 -60 28
-60 5 0 6 -7 3 -16 -3 -8 -2 -12 4 -9 6 3 20 -1 32 -9 12 -9 37 -16 55 -16 26
0 31 -3 27 -17 -4 -13 -3 -14 3 -5 13 18 67 27 57 10 -6 -10 -4 -10 7 -2 13
10 66 16 171 18 24 1 33 5 28 11 -6 7 -2 11 8 12 51 5 97 15 107 23 6 5 21 7
33 3 13 -3 22 -1 22 6 0 6 11 11 25 11 30 0 50 32 36 59 -13 24 -103 26 -181
4 -51 -15 -260 -25 -260 -13 0 3 -13 11 -29 18 -16 7 -32 21 -36 30 -11 28
-17 112 -9 130 4 9 8 24 10 32 2 8 8 16 14 18 5 2 8 8 5 12 -3 5 19 35 50 66
30 31 55 53 55 48 0 -4 7 1 16 12 8 10 12 13 8 5 -5 -9 -3 -12 4 -7 7 4 12 14
12 22 0 8 5 12 10 9 6 -3 10 -1 10 5 0 6 4 8 10 5 6 -3 7 1 4 9 -7 19 12 22
20 4 3 -7 4 -4 1 8 -6 25 37 70 57 59 10 -6 10 -5 1 5 -9 10 -7 22 9 54 12 22
27 48 34 56 7 8 13 20 14 25 1 6 6 9 11 8 4 -2 5 5 2 14 -3 9 0 21 8 27 8 6
14 18 14 26 0 8 8 14 17 14 10 -1 15 3 12 8 -3 5 2 19 13 30 10 12 13 18 6 15
-8 -5 -8 -1 0 17 7 13 14 23 17 21 3 -2 6 10 6 27 1 17 7 34 15 39 8 5 10 9 5
9 -5 0 -1 9 9 20 10 11 15 20 11 20 -4 0 -2 9 4 20 14 26 19 89 8 96 -5 3 -6
10 -2 15 7 12 -30 73 -64 104 -28 26 -110 50 -202 59 -9 1 -21 5 -28 10 -6 4
-12 5 -12 3 0 -2 -21 0 -47 5 -27 5 -120 11 -208 13 -147 4 -164 3 -195 -15z"/>
<path d="M2436 4482 c-3 -5 1 -9 9 -9 8 0 12 4 9 9 -3 4 -7 8 -9 8 -2 0 -6 -4
-9 -8z"/>
<path d="M2210 4426 c0 -2 7 -7 16 -10 8 -3 12 -2 9 4 -6 10 -25 14 -25 6z"/>
<path d="M3134 3562 c4 -3 14 -7 22 -8 9 -1 13 0 10 4 -4 3 -14 7 -22 8 -9 1
-13 0 -10 -4z"/>
<path d="M609 3213 c-24 -42 -4 -103 40 -120 17 -8 29 -18 26 -23 -3 -5 -1
-12 5 -15 6 -4 9 -3 8 2 -2 4 1 10 5 12 12 6 77 -21 77 -31 0 -5 5 -6 10 -3 6
3 10 1 10 -6 0 -7 3 -10 6 -7 5 6 137 -42 177 -64 12 -7 32 -11 45 -9 21 2 21
1 10 -24 -6 -14 -17 -24 -23 -22 -6 3 -10 -6 -9 -22 0 -16 7 -27 17 -29 10 -2
15 -7 13 -10 -2 -4 9 -7 24 -7 16 -1 27 2 24 6 -3 6 45 23 54 20 1 -1 15 5 31
13 37 19 130 14 147 -8 6 -9 16 -16 22 -16 6 0 26 -6 44 -14 18 -8 46 -17 61
-21 22 -4 27 -10 22 -23 -5 -13 -3 -14 6 -5 7 7 20 9 33 3 11 -4 24 -8 29 -9
4 0 8 -1 10 -2 1 0 11 -2 21 -4 10 -2 22 -9 26 -15 4 -7 11 -11 16 -10 5 0 18
-2 29 -6 11 -3 27 -8 35 -9 8 -2 16 -8 18 -14 2 -5 10 -7 19 -4 12 5 14 3 8
-7 -5 -9 -4 -11 4 -6 13 9 73 -12 67 -23 -2 -3 8 -7 22 -7 43 -2 112 -24 112
-35 0 -6 3 -8 8 -6 10 7 216 -66 208 -74 -2 -2 14 -5 37 -7 23 -1 44 -7 48
-13 3 -5 10 -9 15 -8 25 4 45 -3 65 -23 12 -13 19 -17 15 -10 -5 7 -1 12 9 12
9 0 13 -4 10 -10 -3 -5 0 -7 8 -4 8 3 18 1 21 -5 4 -6 13 -8 21 -4 8 3 15 0
15 -6 0 -6 3 -10 8 -9 14 3 82 -14 82 -21 0 -4 8 -7 18 -8 33 -2 113 -28 107
-35 -4 -4 2 -4 14 -1 12 3 21 1 21 -4 0 -5 10 -9 22 -10 11 -1 24 -6 27 -11 3
-5 14 -8 24 -6 10 1 17 -4 17 -14 0 -15 2 -15 10 -2 5 8 10 10 10 3 0 -6 8
-10 18 -8 9 1 28 -3 42 -10 14 -7 31 -10 38 -8 7 3 20 -3 28 -13 11 -15 13
-15 8 -3 -4 13 0 15 21 12 14 -3 31 -13 38 -22 7 -9 58 -31 114 -50 57 -18
100 -37 98 -41 -3 -5 4 -6 16 -3 13 4 27 -2 40 -16 11 -11 15 -21 9 -21 -6 0
-9 -4 -5 -10 6 -10 -77 -37 -143 -45 -24 -3 -53 -7 -65 -10 -58 -13 -95 -16
-262 -21 -99 -2 -202 -7 -230 -9 -81 -7 -437 -7 -480 0 -22 4 -71 14 -110 22
-38 8 -99 21 -135 28 -65 14 -232 65 -345 105 -33 12 -67 23 -75 24 -8 1 -40
14 -70 28 -30 14 -70 31 -87 39 -18 8 -33 17 -33 21 0 5 -9 8 -20 8 -11 0 -23
7 -26 15 -4 8 -12 15 -20 15 -7 0 -17 8 -23 18 -5 9 -13 16 -18 14 -4 -2 -23
0 -42 3 -42 8 -66 -12 -76 -63 -12 -60 -9 -98 12 -129 23 -35 43 -74 47 -93 2
-8 6 -23 10 -32 4 -9 4 -22 0 -29 -4 -7 -3 -9 4 -5 6 3 14 -4 18 -16 3 -13 21
-53 39 -90 18 -36 31 -69 27 -72 -3 -3 0 -6 7 -6 7 0 10 -4 7 -9 -3 -5 3 -11
13 -14 12 -3 19 -12 17 -23 -2 -10 3 -25 11 -33 8 -7 12 -20 9 -28 -4 -9 -2
-11 6 -7 8 5 9 2 5 -10 -4 -9 -3 -15 2 -12 11 7 23 -22 14 -36 -3 -7 -1 -8 5
-4 7 4 12 2 12 -3 0 -6 7 -11 16 -11 8 0 12 -5 9 -11 -4 -6 -14 -8 -22 -5 -8
4 1 -10 21 -30 20 -20 39 -47 42 -60 3 -13 10 -24 16 -24 5 0 6 -4 3 -10 -3
-5 -1 -10 5 -10 6 0 8 -4 5 -10 -3 -5 -1 -10 5 -10 8 0 8 -6 0 -20 -9 -16 -8
-18 5 -14 11 5 13 2 9 -10 -3 -9 -12 -16 -20 -16 -8 0 -43 -12 -79 -26 -47
-19 -70 -35 -85 -59 -25 -41 -25 -47 1 -63 12 -8 18 -9 14 -3 -3 6 0 11 9 11
8 0 17 -6 19 -12 3 -8 6 -6 6 5 1 16 17 21 73 21 9 0 15 3 12 7 -3 5 6 11 20
15 13 3 26 14 29 23 2 10 11 18 20 18 9 0 14 -4 11 -9 -5 -7 9 -12 28 -9 3 0
5 -11 4 -24 -3 -21 -1 -23 15 -14 19 10 19 10 23 -40 1 -8 8 -17 16 -19 8 -3
22 -13 31 -23 9 -10 20 -15 24 -11 5 4 5 -1 2 -11 -4 -10 -3 -16 2 -13 5 4 22
-14 37 -38 16 -25 33 -42 39 -38 5 3 3 -3 -5 -14 -8 -10 -11 -16 -7 -13 12 10
60 -38 52 -50 -3 -6 0 -9 7 -6 7 2 24 -4 37 -15 18 -15 21 -23 12 -33 -8 -10
-7 -14 4 -14 8 0 12 4 9 9 -3 4 0 8 5 8 6 0 11 -3 11 -7 0 -5 14 -17 30 -28
16 -11 30 -26 30 -33 0 -6 3 -11 8 -10 14 4 52 -14 52 -24 0 -6 3 -8 6 -5 9 9
46 -12 39 -23 -3 -5 -1 -12 5 -15 6 -4 9 -1 8 7 -2 7 4 13 12 13 8 0 15 -9 15
-20 0 -17 -7 -20 -50 -21 -78 -1 -219 -24 -227 -37 -10 -16 -10 -57 0 -57 5 0
14 -10 21 -23 7 -14 10 -15 6 -3 -4 14 -1 17 11 12 8 -3 25 -6 37 -6 18 0 19
-2 7 -10 -9 -6 -10 -10 -3 -10 6 0 14 4 18 9 3 6 17 6 35 1 17 -5 30 -6 30 -3
0 3 7 0 15 -7 8 -7 15 -8 15 -3 0 6 19 7 48 3 26 -5 50 -6 55 -3 4 2 7 -1 7
-7 0 -6 5 -8 13 -3 18 11 36 12 43 2 3 -6 11 -5 20 2 11 9 14 8 14 -2 0 -11 2
-11 10 1 9 13 10 13 10 0 0 -13 1 -13 10 0 5 8 10 10 10 4 0 -6 10 -10 22 -10
13 1 23 -4 23 -11 0 -6 4 -15 8 -20 5 -4 7 -1 5 7 -2 12 9 15 52 17 38 2 50
-1 40 -7 -9 -6 -10 -10 -3 -10 6 0 15 4 18 10 9 14 127 8 143 -7 7 -7 10 -13
5 -13 -5 0 -10 -14 -11 -31 -1 -17 -8 -41 -14 -52 -14 -28 -28 -87 -19 -87 5
0 9 -38 14 -172 1 -25 5 -44 8 -42 4 2 14 -11 22 -29 19 -38 146 -169 162
-166 13 2 65 -13 65 -20 0 -3 20 -5 45 -4 26 2 44 -1 40 -7 -3 -5 8 -5 27 1
41 11 41 11 33 -1 -3 -5 -1 -10 4 -10 6 0 11 4 11 9 0 5 16 8 35 6 20 -1 35 3
35 9 0 6 5 4 10 -4 5 -8 10 -10 10 -4 0 10 74 29 83 22 2 -2 11 3 19 10 9 7
23 10 32 6 9 -3 16 -2 16 4 0 8 34 20 80 27 8 2 24 6 34 11 13 5 17 4 12 -4
-3 -6 -1 -14 5 -18 7 -4 9 -3 6 3 -9 15 29 47 47 40 9 -4 18 -2 21 3 3 5 27 9
53 9 26 0 62 3 80 5 18 3 51 8 73 11 32 5 39 3 34 -7 -3 -7 0 -6 7 4 16 19 78
32 78 15 0 -6 7 -2 15 9 8 10 15 16 15 13 0 -4 25 -1 55 6 41 10 53 10 48 2
-4 -7 1 -6 10 2 9 7 45 15 79 17 172 10 228 12 228 5 0 -4 15 -6 33 -5 39 3
119 -15 129 -30 4 -6 10 -7 14 -4 11 11 66 -33 60 -48 -3 -8 0 -11 10 -7 12 5
19 -7 15 -29 0 -5 6 -8 14 -8 8 0 12 -6 9 -13 -5 -14 15 -19 51 -12 17 3 21
13 23 55 1 28 -3 50 -8 50 -6 0 -10 8 -10 18 0 21 -80 112 -98 112 -7 0 -12 3
-12 8 0 8 -71 33 -115 40 -45 6 -312 6 -380 -1 -33 -3 -97 -11 -143 -17 -45
-6 -112 -13 -150 -15 -37 -3 -76 -7 -87 -9 -11 -2 -28 -4 -38 -5 -10 0 -15 -5
-12 -11 4 -6 -15 -10 -48 -10 -30 0 -86 -10 -123 -21 -38 -12 -82 -23 -99 -26
-16 -2 -43 -9 -60 -14 -16 -6 -48 -13 -70 -15 -76 -8 -91 -10 -103 -18 -7 -4
-12 -4 -12 1 0 4 -26 8 -58 9 -91 0 -182 50 -248 136 -41 53 -52 75 -52 103 0
27 5 38 20 44 11 4 19 11 18 16 -1 5 4 11 11 14 7 2 9 -1 5 -8 -10 -16 0 -13
14 5 8 8 9 14 4 13 -21 -4 -26 2 -14 16 7 8 16 12 21 9 5 -3 9 2 9 10 0 8 9
18 20 21 11 3 20 11 20 16 0 6 4 8 9 5 5 -4 11 -2 13 3 5 14 68 21 68 8 0 -8
4 -7 9 2 8 12 36 11 94 -4 4 -2 12 -3 18 -4 5 0 7 -7 3 -13 -6 -10 -5 -10 7
-1 12 9 23 9 52 -1 20 -7 34 -16 30 -19 -3 -4 -1 -7 5 -7 7 0 12 5 12 11 0 5
5 7 12 3 7 -4 29 -7 50 -5 23 1 38 -3 38 -10 0 -6 -7 -8 -17 -4 -15 5 -16 4
-5 -7 11 -11 15 -10 25 3 13 18 32 15 61 -10 11 -9 16 -10 12 -3 -4 6 -2 12 3
12 6 0 11 -8 12 -17 0 -11 3 -13 6 -5 7 17 23 15 66 -7 20 -10 34 -15 31 -10
-3 5 0 9 5 9 6 0 11 -4 11 -9 0 -4 16 -7 35 -6 19 1 40 -2 47 -6 6 -4 20 -3
30 2 12 7 18 6 18 -1 0 -7 6 -8 19 0 14 7 20 7 23 -2 2 -6 12 -12 21 -14 9 -1
15 2 11 7 -3 5 -10 7 -15 4 -5 -4 -9 -2 -9 3 0 5 17 9 37 8 24 -1 59 10 100
31 35 18 63 30 63 27 0 -4 27 22 60 56 36 36 63 73 67 91 3 16 11 29 17 29 7
0 7 3 1 8 -5 4 -10 37 -10 73 0 65 -1 68 -40 103 -39 36 -113 76 -140 76 -7 0
-16 6 -19 13 -5 9 -7 9 -12 0 -4 -10 -11 -10 -32 0 -23 11 -43 13 -62 8 -3 -1
-36 -3 -75 -5 -38 -3 -93 -9 -121 -16 -28 -6 -55 -10 -60 -9 -5 1 -16 0 -24
-4 -8 -3 -37 -8 -65 -11 -27 -3 -62 -8 -77 -11 -18 -3 -28 -1 -28 7 0 6 -7 3
-15 -8 -14 -18 -14 -18 -15 9 0 26 4 29 40 31 8 1 15 6 15 11 0 20 16 34 32
28 10 -4 14 -2 10 4 -4 6 6 23 23 36 16 14 30 31 30 37 0 6 5 8 10 5 6 -3 10
1 10 9 0 9 6 15 13 14 6 -2 11 2 10 9 -2 11 67 70 78 66 3 -1 12 9 19 23 8 14
19 23 26 20 6 -2 11 3 10 12 0 9 5 16 12 14 6 -1 11 1 10 5 -4 15 13 53 21 48
5 -2 17 13 27 35 10 22 22 40 27 40 4 0 7 7 7 15 0 8 9 19 20 25 11 6 19 14
17 18 -4 13 44 82 54 77 5 -4 6 0 3 8 -3 8 2 21 10 30 8 8 12 17 9 21 -4 3 -1
6 5 6 7 0 12 8 12 18 0 9 5 24 10 32 9 13 11 13 21 0 9 -13 10 -13 6 2 -3 9 3
28 14 41 10 14 19 31 19 37 0 10 3 10 15 0 12 -10 13 -8 10 11 -3 13 1 26 7
30 6 4 13 16 14 26 2 9 8 19 13 21 6 2 11 9 11 15 0 7 11 24 24 39 14 14 22
29 19 32 -10 10 20 57 33 52 7 -3 15 0 18 7 3 9 5 9 5 0 1 -6 10 -9 23 -5 16
4 19 2 13 -8 -5 -8 -4 -11 3 -6 9 5 36 1 102 -15 8 -2 33 -14 56 -25 56 -28
142 -29 166 -2 9 10 25 20 36 21 12 0 19 4 16 8 -2 4 1 20 8 36 6 15 12 30 12
33 1 3 4 10 8 15 4 6 3 16 -1 23 -10 17 -81 52 -81 40 0 -5 -7 -2 -16 7 -10 9
-25 14 -36 12 -10 -3 -16 -1 -12 4 3 5 -3 9 -13 10 -24 1 -36 4 -118 27 -86
25 -132 48 -163 81 l-24 26 22 17 c17 14 26 15 53 6 18 -6 37 -17 43 -25 10
-11 13 -11 17 -1 4 8 6 7 6 -4 1 -10 6 -18 12 -18 5 0 7 4 4 10 -8 13 1 13 25
0 12 -6 21 -6 25 -1 3 5 19 9 36 9 24 -1 37 7 56 31 21 27 27 30 41 19 13 -11
14 -11 7 2 -16 25 -15 44 2 57 32 25 -17 57 -112 73 -103 17 -118 21 -146 36
-30 15 -30 13 -14 112 8 48 -48 156 -115 220 -50 48 -88 71 -190 116 -19 9
-54 27 -78 41 -24 15 -55 28 -70 30 -49 8 -175 44 -181 52 -10 13 -47 20 -124
22 -16 1 -26 5 -22 10 3 6 -7 8 -22 7 -16 -2 -33 0 -38 5 -6 4 -33 10 -60 13
-28 2 -50 5 -50 6 0 1 -7 3 -15 5 -8 1 -42 8 -75 16 -40 8 -164 14 -365 16
-537 5 -565 5 -652 -13 -46 -9 -118 -18 -161 -20 -44 -2 -100 -10 -125 -17
-49 -13 -210 -16 -230 -3 -7 4 -12 5 -12 3 0 -2 -19 0 -42 4 -104 18 -319 59
-383 74 -103 22 -128 20 -146 -12z m1764 -262 c46 0 77 -4 77 -11 0 -5 7 -10
15 -10 8 0 15 -4 15 -10 0 -5 7 -10 15 -10 8 0 15 -4 15 -10 0 -5 7 -10 16
-10 8 0 13 -4 10 -8 -6 -10 54 -8 78 3 10 4 31 9 45 11 14 1 26 3 26 4 0 2 10
4 23 5 12 1 22 -3 22 -9 0 -6 5 -4 10 4 5 8 10 11 10 5 0 -6 30 -10 73 -9 82
1 118 -10 110 -35 -3 -10 -2 -12 4 -6 4 6 20 12 35 13 32 2 184 -60 181 -75
-1 -5 11 -8 26 -5 21 3 30 -2 39 -20 7 -12 10 -15 8 -6 -4 14 3 13 45 -8 27
-14 49 -29 49 -35 0 -5 3 -8 8 -7 4 2 25 -8 47 -21 22 -14 43 -24 46 -23 3 0
12 -10 19 -23 7 -14 18 -25 23 -25 5 0 4 -7 -3 -15 -15 -19 -33 -16 -170 25
-98 30 -243 64 -317 75 -61 9 -300 63 -360 81 -29 9 -50 20 -47 25 3 5 -2 6
-10 3 -8 -3 -45 4 -83 15 -37 11 -81 22 -98 25 -50 8 -116 32 -110 38 4 3 1 9
-5 13 -6 3 -9 2 -8 -3 3 -10 -8 -12 -27 -6 -5 1 -26 4 -45 7 -47 5 -62 10 -77
24 -28 25 -11 29 107 26 47 -1 120 -2 163 -2z m552 -441 c-3 -5 -12 -10 -18
-10 -7 0 -6 4 3 10 19 12 23 12 15 0z m-1624 -461 c11 -5 17 -14 14 -20 -4 -5
-3 -9 2 -8 13 4 86 -13 121 -28 29 -12 37 -23 33 -46 -1 -5 3 -6 8 -2 6 3 8
12 4 21 -5 13 0 12 30 -2 20 -10 34 -21 31 -26 -3 -4 2 -5 10 -2 11 4 16 0 16
-12 0 -16 2 -17 10 -4 9 13 11 13 20 0 5 -8 10 -10 10 -4 0 13 38 12 59 0 10
-6 12 -5 7 2 -5 8 -2 10 8 6 9 -3 14 -10 11 -14 -3 -5 4 -6 15 -3 12 3 20 0
20 -6 0 -7 4 -10 8 -7 11 6 26 -4 41 -29 11 -18 12 -18 7 -1 -6 16 -4 17 9 6
12 -10 15 -10 16 1 0 8 4 5 9 -6 5 -11 9 -14 9 -7 1 13 61 17 61 4 0 -11 31
-9 49 3 10 6 12 4 6 -6 -8 -12 -6 -12 8 0 9 7 17 9 17 4 0 -5 21 -9 48 -10 79
-1 93 -3 88 -11 -3 -5 1 -9 9 -9 8 0 12 4 9 9 -3 5 14 5 38 2 24 -4 58 -7 76
-7 17 0 32 -3 32 -7 0 -4 14 -5 30 -2 21 3 30 0 30 -9 0 -11 2 -11 10 1 5 8
10 10 10 4 0 -7 19 -10 55 -7 49 3 54 2 49 -14 -4 -13 -3 -14 3 -5 12 17 53
24 53 9 0 -8 3 -8 12 1 9 9 15 9 27 -1 12 -9 13 -9 7 1 -9 15 6 16 22 0 9 -9
12 -9 12 2 0 9 5 7 14 -6 8 -10 18 -16 22 -11 4 4 2 7 -4 7 -7 0 -12 4 -12 9
0 5 9 7 20 4 11 -3 20 -9 20 -13 0 -5 9 -12 20 -15 11 -3 20 -13 20 -21 0 -8
5 -14 10 -14 14 0 12 -33 -2 -49 -10 -11 -10 -13 0 -7 6 4 12 3 12 -2 0 -11
-156 -321 -185 -367 -33 -53 -70 -110 -75 -115 -3 -3 -14 -22 -25 -44 -27 -53
-108 -121 -162 -137 -25 -7 -91 -13 -147 -13 -96 -1 -103 0 -137 27 -20 15
-39 27 -43 27 -18 0 -126 82 -152 116 -16 21 -66 76 -111 121 -46 46 -83 88
-83 93 0 6 -4 10 -10 10 -5 0 -10 7 -10 15 0 8 -9 20 -20 27 -11 7 -20 16 -20
20 0 7 -21 36 -47 63 -7 8 -13 18 -13 24 0 5 -9 16 -19 23 -11 8 -23 27 -27
43 -3 17 -16 44 -28 60 -12 17 -28 46 -36 65 -8 19 -24 51 -37 71 -13 20 -26
47 -29 60 -9 39 -12 54 -14 54 -1 0 -4 11 -6 25 -2 13 -10 28 -17 32 -9 5 -6
11 8 23 11 8 16 15 10 14 -22 -3 -25 2 -13 16 16 17 15 17 39 4z m2009 -1112
c0 -5 7 -4 16 4 9 7 18 9 22 3 4 -5 21 -10 39 -11 18 -1 46 -9 62 -18 17 -8
37 -15 45 -15 8 0 20 -8 25 -17 6 -10 11 -14 11 -9 0 5 7 3 15 -4 8 -7 12 -17
8 -23 -3 -6 -1 -7 5 -3 6 3 16 -3 22 -14 7 -13 7 -20 1 -20 -6 0 -8 -7 -4 -15
7 -19 -41 -62 -79 -70 -15 -4 -30 -11 -33 -16 -4 -5 -16 -9 -29 -9 -12 0 -26
-3 -30 -7 -11 -11 -143 -12 -196 -1 -25 5 -57 11 -72 13 -15 2 -32 7 -38 10
-12 7 -103 30 -162 40 -18 3 -38 10 -44 16 -7 5 -27 12 -45 14 -17 2 -36 10
-40 17 -7 10 -9 10 -9 1 0 -20 -20 -15 -20 5 0 14 -2 15 -10 2 -8 -13 -10 -12
-10 3 0 9 3 17 8 18 4 0 27 2 52 4 25 1 69 9 98 18 28 9 52 12 52 6 0 -5 5 -9
11 -9 5 0 7 5 4 10 -3 6 -3 10 2 11 4 0 15 2 23 4 63 14 84 14 99 3 14 -12 15
-11 2 5 -7 9 -10 17 -5 18 9 1 28 4 54 10 8 2 18 9 22 14 5 6 8 5 8 -3 0 -10
4 -10 16 2 21 22 40 21 23 -1 -11 -13 -7 -12 12 3 27 20 69 27 69 11z"/>
<path d="M2990 2845 c0 -7 30 -13 34 -7 3 4 -4 9 -15 9 -10 1 -19 0 -19 -2z"/>
<path d="M3056 2827 c3 -10 9 -15 12 -12 3 3 0 11 -7 18 -10 9 -11 8 -5 -6z"/>
<path d="M1415 1980 c3 -5 8 -10 11 -10 2 0 4 5 4 10 0 6 -5 10 -11 10 -5 0
-7 -4 -4 -10z"/>
<path d="M1506 1942 c-3 -5 1 -9 9 -9 8 0 12 4 9 9 -3 4 -7 8 -9 8 -2 0 -6 -4
-9 -8z"/>
<path d="M2173 1825 c0 -8 4 -12 9 -9 5 3 6 10 3 15 -9 13 -12 11 -12 -6z"/>
<path d="M2415 1800 c-3 -6 1 -7 9 -4 18 7 21 14 7 14 -6 0 -13 -4 -16 -10z"/>
<path d="M3266 922 c-2 -4 4 -8 14 -8 10 0 16 4 14 8 -3 4 -9 8 -14 8 -5 0
-11 -4 -14 -8z"/>
<path d="M3014 858 c-5 -7 44 -3 52 5 3 3 -7 4 -21 3 -15 0 -29 -4 -31 -8z"/>
<path d="M2890 826 c0 -2 7 -7 16 -10 8 -3 12 -2 9 4 -6 10 -25 14 -25 6z"/>
<path d="M915 2960 c-3 -6 1 -7 9 -4 18 7 21 14 7 14 -6 0 -13 -4 -16 -10z"/>
<path d="M1175 2871 c-3 -5 -2 -12 3 -15 5 -3 9 1 9 9 0 17 -3 19 -12 6z"/>
<path d="M1205 2860 c-3 -6 1 -7 9 -4 18 7 21 14 7 14 -6 0 -13 -4 -16 -10z"/>
<path d="M1276 2858 c3 -5 10 -6 15 -3 13 9 11 12 -6 12 -8 0 -12 -4 -9 -9z"/>
<path d="M1616 2722 c-3 -5 1 -9 9 -9 8 0 12 4 9 9 -3 4 -7 8 -9 8 -2 0 -6 -4
-9 -8z"/>
<path d="M1854 2642 c4 -3 14 -7 22 -8 9 -1 13 0 10 4 -4 3 -14 7 -22 8 -9 1
-13 0 -10 -4z"/>
<path d="M2030 2566 c0 -2 7 -7 16 -10 8 -3 12 -2 9 4 -6 10 -25 14 -25 6z"/>
<path d="M2236 2498 c3 -5 10 -6 15 -3 13 9 11 12 -6 12 -8 0 -12 -4 -9 -9z"/>
<path d="M2570 2401 c0 -6 4 -13 10 -16 6 -3 7 1 4 9 -7 18 -14 21 -14 7z"/>
<path d="M3815 1980 c-3 -5 -1 -10 4 -10 6 0 11 5 11 10 0 6 -2 10 -4 10 -3 0
-8 -4 -11 -10z"/>
<path d="M3955 1931 c-3 -5 -2 -12 3 -15 5 -3 9 1 9 9 0 17 -3 19 -12 6z"/>
<path d="M3513 575 c0 -8 4 -12 9 -9 5 3 6 10 3 15 -9 13 -12 11 -12 -6z"/>
<path d="M3086 558 c3 -5 10 -6 15 -3 13 9 11 12 -6 12 -8 0 -12 -4 -9 -9z"/>
<path d="M3950 259 c0 -5 5 -7 10 -4 6 3 10 8 10 11 0 2 -4 4 -10 4 -5 0 -10
-5 -10 -11z"/>
<path d="M4110 226 c0 -2 7 -7 16 -10 8 -3 12 -2 9 4 -6 10 -25 14 -25 6z"/>
<path d="M3413 185 c0 -8 4 -12 9 -9 5 3 6 10 3 15 -9 13 -12 11 -12 -6z"/>
<path d="M3375 180 c3 -5 8 -10 11 -10 2 0 4 5 4 10 0 6 -5 10 -11 10 -5 0 -7
-4 -4 -10z"/>
<path d="M2536 82 c-3 -5 1 -9 9 -9 8 0 12 4 9 9 -3 4 -7 8 -9 8 -2 0 -6 -4
-9 -8z"/>
<path d="M2990 79 c0 -5 5 -7 10 -4 6 3 10 8 10 11 0 2 -4 4 -10 4 -5 0 -10
-5 -10 -11z"/>
</g>
</svg>
