<?xml version="1.0" standalone="no"?>
<!DOCTYPE svg PUBLIC "-//W3C//DTD SVG 20010904//EN"
 "http://www.w3.org/TR/2001/REC-SVG-20010904/DTD/svg10.dtd">
<svg version="1.0" xmlns="http://www.w3.org/2000/svg"
 width="416.000000pt" height="416.000000pt" viewBox="0 0 416.000000 416.000000"
 preserveAspectRatio="xMidYMid meet">
<metadata>
Created by potrace 1.11, written by Peter Selinger 2001-2013
</metadata>
<g transform="translate(0.000000,416.000000) scale(0.100000,-0.100000)"
fill="#000000" stroke="none">
<path d="M1255 3910 c-239 -72 -386 -157 -520 -301 -107 -116 -148 -240 -149
-449 -1 -135 -1 -135 33 -200 30 -58 34 -76 39 -165 4 -99 4 -101 -23 -134
-27 -31 -28 -35 -16 -68 38 -105 -77 -399 -212 -540 l-39 -41 -52 18 c-28 10
-59 21 -68 25 -17 7 -18 -46 -18 -1024 l0 -1031 1430 0 1430 0 -5 23 c-4 14 3
40 20 70 l27 47 58 0 c49 0 180 24 251 45 10 4 43 -26 99 -90 l84 -95 158 0
158 0 0 238 c0 217 -2 239 -19 266 -19 28 -19 31 -3 60 12 22 17 64 20 151 l4
120 -31 42 c-42 58 -103 100 -170 119 -31 8 -66 19 -79 25 l-23 9 5 211 c3
116 1 221 -4 234 -5 14 -22 38 -38 54 -24 25 -31 47 -46 130 -19 110 -36 141
-94 169 -80 38 -101 125 -62 254 12 40 29 86 37 102 10 20 13 42 8 78 -6 43
-16 60 -70 119 -44 48 -65 79 -70 105 -3 21 -25 67 -46 103 -39 64 -40 68 -34
132 6 63 6 66 -24 98 -29 30 -35 33 -74 28 -54 -7 -95 -53 -136 -151 -64 -154
-95 -334 -84 -488 3 -48 4 -88 1 -88 -4 0 -32 13 -63 30 -73 39 -123 39 -181
3 -42 -27 -64 -58 -64 -90 0 -9 18 -49 40 -89 22 -40 40 -86 40 -101 0 -15
-13 -47 -29 -70 l-28 -42 13 -78 c16 -90 13 -112 -28 -207 -36 -82 -34 -127 8
-252 72 -216 145 -320 239 -340 43 -9 96 -41 124 -75 l23 -30 -59 -62 c-33
-34 -68 -74 -77 -89 -14 -21 -22 -26 -35 -18 -42 22 -115 22 -176 1 -133 -48
-149 -51 -183 -29 -29 18 -31 22 -25 64 4 30 1 57 -10 82 -8 20 -18 70 -21
110 -6 94 -30 134 -133 233 -67 64 -92 81 -159 106 -160 61 -322 80 -409 47
-22 -8 -47 -17 -55 -20 -8 -2 -33 11 -54 29 -45 39 -42 54 20 96 20 14 51 47
68 73 36 55 66 68 150 68 72 0 196 -19 264 -41 19 -6 55 -12 80 -13 41 -1 57
6 117 45 89 59 124 97 135 144 7 32 4 47 -23 101 l-31 64 28 56 c26 50 28 66
27 141 -2 89 17 207 50 309 17 54 24 62 59 78 21 9 53 34 70 55 l30 39 -19 43
c-11 24 -22 82 -26 128 l-7 83 52 53 53 53 -7 59 c-8 68 -34 152 -52 170 -16
17 -41 103 -49 173 -14 117 -38 184 -96 270 -67 99 -153 167 -324 254 -121 61
-242 100 -380 121 -49 8 -124 23 -165 34 -77 20 -232 42 -285 40 -16 -1 -57
-9 -90 -19z m295 -2850 c-16 -29 -33 -12 -24 24 6 24 8 26 21 13 12 -12 13
-19 3 -37z m2185 -240 c10 -11 14 -20 9 -20 -5 0 -15 9 -22 20 -7 11 -11 20
-9 20 2 0 12 -9 22 -20z m-499 -321 c54 -71 100 -134 102 -138 4 -13 -52 -21
-137 -21 -106 0 -116 4 -136 56 -9 25 -28 58 -42 74 -16 19 -22 36 -18 49 7
24 100 111 118 111 7 0 58 -59 113 -131z m-838 -6 c-12 -13 -22 -22 -23 -20
-1 1 -5 24 -9 51 l-6 50 30 -29 30 -29 -22 -23z m-65 -89 c-14 -27 -28 -51
-29 -53 -2 -2 -12 7 -23 20 -17 20 -18 27 -7 43 7 11 19 20 28 22 9 1 24 7 34
12 11 6 20 9 22 8 1 -2 -10 -25 -25 -52z"/>
</g>
</svg>
